<?xml version="1.0" encoding="UTF-8" standalone="no"?>
<!DOCTYPE svg PUBLIC "-//W3C//DTD SVG 1.1//EN" "http://www.w3.org/Graphics/SVG/1.1/DTD/svg11.dtd">
<svg width="100%" height="100%" viewBox="0 0 800 145" version="1.1" xmlns="http://www.w3.org/2000/svg" xmlns:xlink="http://www.w3.org/1999/xlink" xml:space="preserve" xmlns:serif="http://www.serif.com/" style="fill-rule:evenodd;clip-rule:evenodd;stroke-linejoin:round;stroke-miterlimit:2;">
    <g>
        <path id="polyline3" d="M435.229,135.009L538.465,135.009L538.465,122.399L452.927,122.399L452.927,82.049L517.176,82.049L517.176,69.29L452.927,69.29L452.927,32.115L538.465,32.115L538.465,19.551L435.229,19.551L435.229,135.009" style="fill-rule:nonzero;"/>
        <path id="polyline5" d="M488.878,0.887L474.901,16.589L518.778,0.887L488.878,0.887" style="fill-rule:nonzero;"/>
        <path id="polyline7" d="M711.773,122.399L711.773,19.551L695.637,19.551L695.637,135.009L800,135.009L800,122.399L711.773,122.399" style="fill-rule:nonzero;"/>
        <path id="path9" d="M605.359,19.551L546.652,135.009L566.496,135.009L581.515,105.125L651.925,105.125L667.072,135.009L686.711,135.009L627.957,19.551L605.359,19.551M588.946,90.653L616.61,35.505L644.598,90.653L588.946,90.653Z" style="fill-rule:nonzero;"/>
        <path id="path11" d="M379.21,86.73C405.661,79.672 408.231,59.991 408.097,52.955C406.518,32.329 392.621,19.551 367.65,19.551L294.88,19.551L294.88,135.009L311.469,135.009L311.469,86.576L358.844,86.576L393.697,135.009L414.606,135.009C414.605,135.009 389.524,102.413 379.21,86.73M365.385,72.934L311.469,72.934L311.469,33.217L367.264,33.217C380.11,33.217 387.336,39.214 389.939,46.832C391.661,52.054 390.557,58.909 387.708,63.576C383.045,71.292 374.187,72.934 365.385,72.934Z" style="fill-rule:nonzero;"/>
        <path id="path13" d="M195.188,0C148.36,0 116.443,33.017 116.443,72.979C116.443,115.049 151.7,144.748 195.188,144.748C238.647,144.748 273.89,115.473 273.89,72.979C273.89,33.017 241.578,0 195.188,0M194.626,130.416C162.228,130.416 135.534,104.381 135.534,73.018C135.534,41.698 160.968,14.416 195.882,14.416C229.931,14.416 254.96,41.698 254.96,73.018C254.96,104.38 227.01,130.416 194.626,130.416Z" style="fill-rule:nonzero;"/>
        <path id="polyline15" d="M74.663,60.396L86.633,60.396L108.36,19.551L90.876,19.551L74.663,60.396" style="fill-rule:nonzero;"/>
        <path id="polyline17" d="M16.145,122.399L16.145,19.551L0,19.551L0,135.009L104.359,135.009L104.359,122.399L16.145,122.399" style="fill-rule:nonzero;"/>
    </g>
</svg>
