<?xml version="1.0" encoding="UTF-8" standalone="no"?>
<!DOCTYPE svg PUBLIC "-//W3C//DTD SVG 1.1//EN" "http://www.w3.org/Graphics/SVG/1.1/DTD/svg11.dtd">
<svg width="100%" height="100%" viewBox="0 0 642 394" version="1.1" xmlns="http://www.w3.org/2000/svg" xmlns:xlink="http://www.w3.org/1999/xlink" xml:space="preserve" xmlns:serif="http://www.serif.com/" style="fill-rule:evenodd;clip-rule:evenodd;stroke-linejoin:round;stroke-miterlimit:2;">
    <g transform="matrix(1,0,0,1,-3.60876,-125.131)">
        <g>
            <g transform="matrix(0.78706,0,0,0.78706,49.2582,68.5168)">
                <path d="M662.5,528.4C662.5,523.1 667.1,518.4 678.7,518.4C684.8,518.4 690,519.4 695.3,521.2L696.4,516.8C691.4,515 685.2,513.8 678.4,513.8C663.3,513.8 656.5,520.2 656.5,528.6C656.5,547 692.7,540.4 692.7,555.4C692.7,562.6 687,566.9 675.8,566.9C668.4,566.9 662.4,565.4 656.9,562.6L655.8,567.2C661.1,569.8 667.7,571.5 675.8,571.5C690.8,571.5 698.7,565.3 698.7,555.1C698.7,535.9 662.5,542.6 662.5,528.4M612.9,514.8L606.7,514.8L606.7,570.6L647.5,570.6L647.8,565.8L612.9,565.8L612.9,514.8ZM548.5,551.4L561,524.1L563.5,518.4L563.8,518.4L566.2,524.1L578.5,551.4L548.5,551.4ZM559.9,514.8L533.2,570.6L539.9,570.6L546.6,555.9L580.5,555.9L587.2,570.6L594.2,570.6L567.5,514.8L559.9,514.8ZM514.9,555.9L515.1,561.8L514.9,561.9L510.8,556.8L475.6,514.7L469.5,514.7L469.5,570.5L475.2,570.5L475.2,528.4L475.1,522.4L475.3,522.3L479.4,527.4L515.8,570.5L520.4,570.5L520.4,514.7L514.9,514.7L514.9,555.9ZM424.6,566.8C409,566.8 402.8,561.4 402.8,542.6C402.8,523.8 409,518.5 424.5,518.5C440.1,518.5 446.2,523.8 446.2,542.6C446.2,561.4 440.1,566.8 424.6,566.8M424.5,513.9C404.1,513.9 396.4,522 396.4,542.7C396.4,563.4 404.2,571.6 424.5,571.6C445,571.6 452.6,563.4 452.6,542.7C452.6,522 445,513.9 424.5,513.9M371.9,570.6L378.1,570.6L378.1,514.8L371.9,514.8L371.9,570.6ZM319.4,528.4C319.4,523.1 324,518.4 335.6,518.4C341.7,518.4 346.9,519.4 352.2,521.2L353.3,516.8C348.3,515 342.1,513.8 335.3,513.8C320.2,513.8 313.4,520.2 313.4,528.6C313.4,547 349.5,540.4 349.5,555.4C349.5,562.6 343.8,566.9 332.6,566.9C325.2,566.9 319.2,565.4 313.7,562.6L312.6,567.2C317.9,569.8 324.5,571.5 332.6,571.5C347.6,571.5 355.5,565.3 355.5,555.1C355.7,535.9 319.4,542.6 319.4,528.4M267.8,528.4C267.8,523.1 272.4,518.4 284,518.4C290.1,518.4 295.3,519.4 300.6,521.2L301.7,516.8C296.7,515 290.5,513.8 283.7,513.8C268.6,513.8 261.8,520.2 261.8,528.6C261.8,547 298,540.4 298,555.4C298,562.6 292.3,566.9 281.1,566.9C273.7,566.9 267.7,565.4 262.2,562.6L261.1,567.2C266.5,569.8 273,571.5 281.1,571.5C296.1,571.5 304,565.3 304,555.1C304.1,535.9 267.8,542.6 267.8,528.4M213.5,543.4L244.4,543.4L244.4,539.2L213.5,539.2L213.5,519.4L249.2,519.4L248.9,514.8L207.4,514.8L207.4,570.6L250.6,570.6L250.9,566L213.5,566L213.5,543.4ZM193.2,519.5L193,514.7L151.5,514.7L151.5,570.5L157.7,570.5L157.7,544.1L187.6,544.1L187.6,539.6L157.7,539.6L157.7,519.5L193.2,519.5ZM106.6,566.8C91,566.8 84.8,561.4 84.8,542.6C84.8,523.8 91,518.5 106.5,518.5C122.1,518.5 128.2,523.8 128.2,542.6C128.2,561.4 122.1,566.8 106.6,566.8M106.6,513.9C86.2,513.9 78.5,522 78.5,542.7C78.5,563.4 86.3,571.6 106.6,571.6C127.1,571.6 134.7,563.4 134.7,542.7C134.6,522 127,513.9 106.6,513.9M43.9,541.5L27.9,541.5L27.9,519.2L44.5,519.2C54.4,519.2 58.8,522.3 58.8,530.1C58.8,538.2 54.2,541.5 43.9,541.5M65.1,529.9C65.1,519.7 58.6,514.8 44.4,514.8L21.7,514.8L21.7,570.6L27.9,570.6L27.9,545.6L44.2,545.6L62.2,570.6L69.7,570.6L50.1,544.6C59.9,543.7 65.1,539 65.1,529.9M-16.5,543.8L-32.7,543.8L-32.7,519.2L-16.5,519.2C-5.2,519.2 0.1,522.5 0.1,531.4C0.1,540.8 -5.5,543.8 -16.5,543.8M-16.5,514.8L-39,514.8L-39,570.6L-32.8,570.6L-32.8,548L-16.6,548C-0.4,548 6.3,542.6 6.3,531.3C6.4,519.7 -0.6,514.8 -16.5,514.8M447,462.4C447,438.9 447.2,364.7 447.2,364.7L422.3,364.7L422.1,465.8C422.1,465.8 420.7,491.5 446.8,491.5L518.3,491.5C518.3,491.5 522.9,482.7 528.9,469.6L454.3,469.6C450.3,469.5 447,466.5 447,462.4M410.1,491.5C410.1,491.5 411.3,469.6 399.5,469.6L333.8,469.6C329.7,469.6 326.4,466.5 326.4,462.4L326.4,364.7L301.5,364.7L301.5,465.8C301.5,465.8 300.1,491.5 326.2,491.5L410.1,491.5ZM607.3,392.2C608.6,389.8 611,386.6 615.3,386.5C620.4,386.6 622,389.6 623.3,392.1C632.2,408.7 649.8,447.9 649.8,447.9L581,447.9C580.9,448 598.5,408.9 607.3,392.2M573.1,467.2L657.5,467.2L668.9,491.5L698.3,491.5L644,377.5C644,377.5 638.9,365 625.6,365L605.1,365C591.9,365 586.7,377.5 586.7,377.5L532.3,491.4L561.8,491.4L573.1,467.2ZM156.5,337.7C157.7,339.4 160.4,338.7 160.2,336.6C158.7,323.9 154.9,310.9 146.3,301.1C137.8,291.4 125.8,287.4 113.2,285.5C99.5,283.3 85.5,284 71.6,284.8C65.4,285.1 58.3,286.6 52.1,285.4C44.8,284 44.9,277 47,271.3C48,268.6 50.6,265.6 50.7,262.7C50.8,261.3 50.2,259.9 49.4,258.7L47.8,256.8C46.7,255.8 46.4,255.8 46.9,254.2C47.4,252.6 48.2,251.1 49.2,249.9C50.3,248.7 52.2,248.5 52.5,246.6C52.9,244.6 51.3,243.8 49.8,243.1C47.9,242.3 43.2,238.4 45.5,236.4C48.3,233.9 50.1,230.4 50.2,226.7C50.3,223.6 49,220.7 46.4,218.9C43.4,216.8 39.5,213.9 38.9,210.1C38.6,208.2 44.8,205 46.3,204C49.8,201.6 53.3,199.3 56.7,196.8C63.2,192.1 70.4,186.8 74.4,179.6C78.3,172.7 77.4,163.8 79.1,156.2C79.9,152.6 81.1,149 82.7,145.7C86.5,139.7 91,134.4 96.7,130.2L98.1,129.2L98.3,129L100.4,127.7C102.5,126.4 104.9,125.2 106.9,123.7C109.7,121.6 111.3,118.5 113.5,115.8C124.8,101.7 142.6,97.3 160.3,97.7C187,98.3 209.7,115 230.6,129.8C253.6,146.1 276.2,163.3 300.8,177.2C313.2,184.2 326.1,190.4 340.1,193.5C355.6,197 371.6,197.1 387.2,195C400.2,193.3 412.9,190.1 425.2,185.8C436.1,182 446.5,177.2 457.1,172.7C471.4,166.7 486,160.9 501.3,157.6C514.7,154.8 529.8,153.8 542.6,159.4C548.1,161.8 555,167.3 558.7,172C560,173.6 562.7,176.7 563.3,173C564,169 563.2,164.6 561.6,161C556.8,150.3 549.2,143.4 535.8,137.8C525.1,133.3 513.8,131.7 502.4,132.8C479.7,135 458.3,143.7 437.3,151.9C421.9,157.9 406.6,165.1 390.2,167.7C365.6,171.7 338.8,167 317,155.3C295.5,143.8 275.8,129 256,115C235.8,100.8 215.8,86.5 192.4,78.1C169.7,69.9 144.9,69.3 122.8,79.8C111.9,85 101.6,93.6 97.4,105.2C96.7,107 96.4,109.1 95.3,110.7L93.9,112.2C92.9,112.8 92,113.4 91.6,113.6L90.1,114.5L89.2,114.9C87.4,115.8 85.7,117 84,118.3C80.7,120.6 77.6,123 74.8,126C66.5,134.8 62.5,146.4 59.8,157.9C59,161.6 58.3,165.3 57.6,169.1C56.9,173.4 55.5,176.1 52.4,179.2C46.6,184.9 39.5,189.4 32.7,193.9C29.6,196 26.4,198 23.2,200.1C21.4,201.3 18.7,202.5 17.6,204.3C14.2,209.6 19,216.3 22.6,219.9C24.7,221.9 28.1,223.7 28.4,226.8C28.7,229.3 27,231.7 25.3,233.4C24.4,234.3 22.7,235.1 22.5,236.4C22.3,237.9 22.2,239.5 22.6,240.9C23.4,244.3 26.1,246.5 28.9,248.4C24.3,250.4 16.6,258.3 22.6,262.9C26.2,265.6 25.9,267.8 24.9,271.7C23.9,275.6 23.1,279.6 23,283.7C22.9,290.4 25.1,296.9 31.5,300.1C38.2,303.4 46.8,302.8 54.1,302.5C82.7,301.2 115.1,293.6 139.2,313.5C142.6,316.3 145.6,319.5 148.3,323C150,325.3 151.5,327.6 152.9,330.1C154.1,332.3 154.9,335.4 156.5,337.7M462.3,259.6C435.4,269.7 408.8,281.2 380,284.1C352.9,286.8 325.7,281.7 302.5,267.5C282.9,255.5 265.9,239.7 248.4,225C239.5,217.5 230.5,209.7 219.5,205.2C213.9,202.9 207.5,201 201.3,201.5C199.4,201.6 193,202.6 194.3,206C196.3,207.6 199.3,207.4 201.6,208.5C203.9,209.6 206,210.9 208.1,212.3C215.9,217.6 223,224 229.6,230.8C239.2,240.7 248,251.4 257.7,261.4C266.9,271 276.8,280.4 287.3,288.6C295.5,295 304.5,300.2 314.3,303.9C326.9,308.5 340.4,310.7 353.8,311.8C386.6,314.5 418.3,306.4 448.7,294.8C476.4,284.3 503.5,271.8 533.1,266.9C553.7,263.5 576.7,264.1 594.3,276.6C599.8,280.4 604.2,285.4 607.1,291.4L608.2,293.4C610,295.8 611.4,289.9 611.7,288.7C613.1,282.5 611.9,275 609.1,269.4C604.9,260.9 596.9,255.8 589.1,251.5C578.9,245.9 566.3,243.8 554.7,242.7C523.1,239.3 491.6,248.7 462.3,259.6M511.8,186.6C486.9,189.6 464.6,201.3 441.4,210.1C427.4,215.5 413,219.9 398.2,222.9C382.9,226 367.2,227.7 351.6,225.4C339.6,223.6 328.3,219.4 317.5,214.1C307.7,209.4 297.9,204.5 288.8,198.7C269.2,186.3 251.1,171.5 233.3,156.8C215.4,142 194,126.9 169.4,129.6C163.7,130.2 158.1,131.8 153.1,134.6C151.3,135.7 143.7,139.9 144.9,142.6C145.7,144.5 148.6,144 150.2,143.7C153.4,143.2 156.5,142.7 159.7,142.4C165.5,141.9 171.2,142.6 176.8,144C192,147 205.1,156.4 216.6,166.2C225.5,173.8 233.8,182.1 242,190.4C259.7,208.2 277.6,227.7 300.5,239.2C328.4,253.2 359.8,257.9 390.6,252.8C418.1,248.2 445.6,239.1 470.5,226.7C485.1,219.5 500.2,212.9 516.4,210.1C530.6,207.6 546,207.3 559.4,213.1C567.9,216.8 575,222.5 581.6,228.9C582.5,229.8 583.9,231.5 585.3,231.3C587,231 586.7,227.5 586.7,226.4C586.8,221.8 586,217.3 584.2,213.1C579.7,203 570,196.6 560,192.6C544.7,186.4 528,184.7 511.8,186.6M185.7,491.1L285.7,491.1C285.7,491.1 286.6,469.6 274.8,469C253.4,469 206.4,469.1 190.2,469.1C181.7,469.1 182.6,461.3 182.6,461.3L182.6,437.5L255.2,437.5L255.2,415.4L182.6,415.4L182.6,394C182.6,394 182.6,387.2 190.2,387.2L274.6,387.2C283.7,387.2 285,365.1 285,365.1L185.2,365.1C155.9,365.1 156.9,390.5 156.9,390.5L156.9,465C156.8,465.1 157.2,491.1 185.7,491.1M87.9,454.1C85.7,448.2 69.1,401.4 60.3,377.1C60.5,377.5 57.9,367.2 51.1,367.1C49,366.7 36.1,366.8 36.1,366.8C36.1,366.8 28.8,365.7 24.6,377.3C15.7,401.6 -1.1,448 -3.3,454C-6.1,445.3 -31.7,365.1 -31.7,365.1L-58,365.1L-17.1,491.1L7.4,491.1C7.4,491.1 39,408.4 42,400.5C44.9,408.5 75.3,491.1 75.3,491.1L101,491.1L143.2,365.1L117.3,365.1C117.3,365.1 90.7,445.4 87.9,454.1" style="fill-rule:nonzero;"/>
            </g>
            <g transform="matrix(0.923239,0,0,0.923239,0.277011,24.699)">
                <path d="M698.7,384.2L698.7,364.9L695.5,364.9L691.2,375.4L689.1,380.8L688.9,380.8L686.8,375.4L682.5,364.9L679.1,364.9L679.1,384.2L681.4,384.2L681.4,368L681.5,367.9L683.6,373.4L688.1,384.1L690,384.1L694.4,373.3L696.5,367.8L696.7,367.9L696.5,373.8L696.5,384.1L698.7,384.1L698.7,384.2ZM676.1,367.4L676.1,364.9L661.7,364.9L661.7,367.4L667.6,367.4L667.6,384.2L670.2,384.2L670.2,367.4L676.1,367.4Z" style="fill-rule:nonzero;"/>
            </g>
        </g>
    </g>
</svg>
